# xmcd
#
# Track frame offsets: 
#        150
#        15788
#        31688
#        46838
#        62288
#        78188
#        94088
#        109613
#        125063
#        139538
#        154988
#        170288
#        185438
#        197663
#        209963
#        224438
#        237938
#        252263
#        265838
#        280388
#        293438
#        305888
#        319838
#        334688
#
# Disc length: 4657 seconds
#
# Revision: 0
# Processed by: cddbd v1.5.2PL0 Copyright (c) Steve Scherf et al.
# Submitted via: ExactAudioCopy v1.0b3
#
DISCID=53122f18
DTITLE=Bessie Tucker - Complete Recorded Works In Chronological Order 
DTITLE=(1928-1929)
DYEAR=1991
DGENRE=Blues
TTITLE0=Bessie's Moan
TTITLE1=The Dummy
TTITLE2=Fort Worth And Denver Blues [Take 1] [#]
TTITLE3=Fort Worth And Denver Blues [Take 2]
TTITLE4=Penitentiary [Take 1]
TTITLE5=Penitentiary [Take 2]
TTITLE6=Fryin' Pan Skillet Blues [Take 1] [#]
TTITLE7=Fryin' Pan Skillet Blues [Take 2]
TTITLE8=My Man Has Quit Me
TTITLE9=Got Cut All To Pieces [Take 1] [#]
TTITLE10=Got Cut All to Pieces [Take 2]
TTITLE11=Black Name Moan
TTITLE12=Better Boot That Thing [Take 1]
TTITLE13=Better Boot That Thing [Take 2] [#]
TTITLE14=Katy Blues [Take 1]
TTITLE15=Katy Blues [Take 2] [#]
TTITLE16=Mean Old Jack Stropper Blues [Take 1]
TTITLE17=Mean Old Jack Stropper Blues [Take 2] [#]
TTITLE18=Old Black Mary
TTITLE19=Key To The Bushes Blues
TTITLE20=Bogy Man Blues
TTITLE21=Mean Old Master Blues
TTITLE22=Whistling Woman Blues [#]
TTITLE23=T. B. Moan
EXTD=
EXTT0=
EXTT1=
EXTT2=
EXTT3=
EXTT4=
EXTT5=
EXTT6=
EXTT7=
EXTT8=
EXTT9=
EXTT10=
EXTT11=
EXTT12=
EXTT13=
EXTT14=
EXTT15=
EXTT16=
EXTT17=
EXTT18=
EXTT19=
EXTT20=
EXTT21=
EXTT22=
EXTT23=
PLAYORDER=
